<?xml version="1.0" standalone="no"?>
<!DOCTYPE svg PUBLIC "-//W3C//DTD SVG 20010904//EN"
 "http://www.w3.org/TR/2001/REC-SVG-20010904/DTD/svg10.dtd">
<svg version="1.0" xmlns="http://www.w3.org/2000/svg"
 width="512.000000pt" height="512.000000pt" viewBox="0 0 512.000000 512.000000"
 preserveAspectRatio="xMidYMid meet">

<g transform="translate(0.000000,512.000000) scale(0.100000,-0.100000)"
fill="#000000" stroke="none">
<path d="M1174 4742 c-100 -35 -184 -117 -226 -220 -23 -56 -23 -63 -26 -584
l-3 -528 -326 0 c-398 0 -417 -3 -505 -90 -67 -68 -94 -139 -84 -224 3 -28
129 -596 280 -1261 206 -912 280 -1224 300 -1264 37 -73 105 -137 184 -174
l67 -32 1936 -3 c1852 -2 1938 -1 1959 16 20 17 31 82 156 972 74 525 134 971
134 992 0 28 -6 42 -26 57 -34 27 -57 26 -89 -2 -26 -22 -28 -32 -133 -779
-58 -417 -108 -756 -109 -754 -2 2 -77 331 -168 732 l-165 729 0 433 0 432
243 0 c146 0 258 -4 282 -11 49 -14 102 -68 110 -113 4 -18 -5 -113 -19 -210
-33 -226 -33 -239 0 -265 45 -35 93 -24 112 26 18 48 64 414 57 457 -15 100
-81 188 -173 233 l-57 28 -277 3 -277 4 -3 566 c-4 620 -1 591 -65 689 -43 65
-97 108 -171 139 l-57 24 -1405 -1 c-1314 0 -1408 -1 -1456 -17z m2904 -166
c24 -16 55 -50 70 -75 l27 -46 3 -794 2 -794 -64 61 c-42 39 -85 68 -123 84
l-58 23 -827 3 c-819 2 -828 2 -848 -18 -38 -38 -22 -100 31 -119 22 -8 270
-11 818 -11 l786 0 50 -24 c53 -24 107 -77 131 -130 8 -17 126 -524 262 -1126
l248 -1095 -1846 -3 c-1339 -2 -1856 0 -1884 8 -55 16 -131 91 -150 148 -23
68 -556 2432 -556 2463 0 37 39 91 80 111 32 17 82 18 592 18 606 0 611 0 651
-56 10 -14 30 -73 43 -132 14 -59 31 -118 37 -132 23 -47 46 -50 274 -48 204
3 213 4 234 25 27 27 29 75 4 103 -17 19 -30 20 -201 20 l-183 0 -10 38 c-5
20 -14 60 -21 88 -16 71 -63 149 -112 184 -68 49 -122 60 -305 60 l-163 0 0
490 c0 306 4 507 11 538 13 61 66 127 123 153 39 18 98 19 1436 16 l1395 -2
43 -29z"/>
<path d="M1919 4104 c-21 -23 -24 -34 -24 -111 0 -80 1 -86 28 -109 76 -65
143 22 123 160 -13 82 -78 113 -127 60z"/>
<path d="M3236 4109 c-25 -19 -26 -25 -26 -113 0 -76 3 -96 18 -108 44 -39
103 -27 122 25 13 38 13 128 0 163 -21 55 -68 69 -114 33z"/>
<path d="M2387 3999 c-27 -16 -40 -58 -27 -89 12 -30 90 -93 135 -110 126 -49
296 -13 376 77 35 41 37 76 4 108 -30 31 -65 32 -102 1 -48 -40 -95 -59 -148
-59 -55 0 -80 10 -136 54 -38 30 -71 36 -102 18z"/>
</g>
</svg>
